<?xml version="1.0" encoding="utf-8"?>
<!-- Generator: Adobe Illustrator 25.2.1, SVG Export Plug-In . SVG Version: 6.00 Build 0)  -->
<svg version="1.2" baseProfile="tiny" id="Layer_1" xmlns="http://www.w3.org/2000/svg" xmlns:xlink="http://www.w3.org/1999/xlink"
	 x="0px" y="0px" viewBox="0 0 403.8 131.5" overflow="visible" xml:space="preserve">
<g>
	<g>
		<g>
			<path fill="#F1EEFF" d="M44.3,6h23v51.1c0,9.4-2.5,17-7.4,22.9c-2.8,3.4-6.4,6.1-10.8,8.1s-8.8,3-13.4,3
				c-9.1,0-16.9-3.1-23.1-9.2S3.1,68.3,3.1,59.4c0-8.7,3.1-16.1,9.4-22.5c6.2-6.3,13.6-9.5,22.1-9.5c1.4,0,3.4,0.1,6.2,0.4v25.3
				c-1.9-1.5-3.8-2.2-5.7-2.2c-2.4,0-4.4,0.9-6.1,2.6c-1.7,1.7-2.6,3.8-2.6,6.3c0,2.4,0.9,4.4,2.6,6.1c1.8,1.7,3.9,2.6,6.3,2.6
				c5.9,0,8.9-4.1,8.9-12.2V6z"/>
			<path fill="#F1EEFF" d="M102.4,28.7V90h-23V28.7H102.4z M91,1.3c3.1,0,5.8,1.1,8.1,3.3c2.3,2.2,3.4,4.8,3.4,7.8
				c0,3.2-1.1,5.8-3.2,7.9c-2.2,2.1-4.9,3.1-8.3,3.1c-3.4,0-6.1-1-8.3-3.1c-2.2-2.1-3.2-4.7-3.2-7.9c0-3,1.1-5.6,3.4-7.8
				C85.2,2.4,87.9,1.3,91,1.3z"/>
			<path fill="#F1EEFF" d="M137.6,112.7h-23V61.5c0-9.4,2.5-17,7.4-22.9c2.8-3.4,6.4-6.1,10.8-8.1c4.4-2,8.8-3,13.4-3
				c9.1,0,16.9,3.1,23.1,9.2s9.4,13.7,9.4,22.6c0,8.7-3.1,16.2-9.4,22.5c-6.2,6.3-13.6,9.5-22.1,9.5c-1.4,0-3.4-0.1-6.2-0.4V65.5
				c1.9,1.5,3.8,2.3,5.7,2.3c2.4,0,4.4-0.9,6.1-2.6c1.7-1.8,2.6-3.9,2.6-6.3c0-2.4-0.9-4.5-2.6-6.2c-1.8-1.7-3.9-2.6-6.3-2.6
				c-5.9,0-8.9,4.1-8.9,12.2V112.7z"/>
			<path fill="#F1EEFF" d="M209.3,6v23.5h10.3v24.3h-10.3c0,4.9,0.8,8.2,2.3,10.1c1.5,1.8,4.4,2.8,8.5,2.8v24.2
				c-1.2,0-2.1,0.1-2.6,0.1c-5.2,0-10.1-1.2-14.7-3.6c-4.6-2.4-8.3-5.7-11.1-9.8c-3.5-5.3-5.3-12.3-5.3-21V6H209.3z"/>
			<path fill="#F1EEFF" d="M285.7,90h-23V55.4c0-3.5-1.5-5.3-4.4-5.3c-2.9,0-4.3,1.8-4.3,5.3V90h-23V55.8c0-8,2.6-14.7,7.9-20.2
				c5.3-5.5,11.8-8.2,19.4-8.2c8.8,0,15.8,3.2,21.1,9.5c4.1,5,6.2,11.9,6.2,20.7V90z"/>
			<path fill="#F1EEFF" d="M336.8,61.8l22.8-0.9c-0.7,8.9-4,16.1-9.9,21.8c-5.9,5.7-13.2,8.6-21.7,8.6c-9,0-16.6-3.1-22.9-9.4
				s-9.3-14-9.3-23.1c0-8.7,3.1-16.1,9.4-22.2s13.8-9.2,22.6-9.2c7.7,0,14.4,2.4,20.3,7.3c5.9,4.8,9.5,11,11,18.5L335.7,54
				c-2-2.6-4.6-3.9-7.6-3.9c-2.6,0-4.8,0.9-6.5,2.6c-1.7,1.7-2.5,3.9-2.5,6.5c0,2.7,0.9,4.9,2.7,6.7c1.8,1.8,4,2.7,6.7,2.7
				C332.4,68.6,335.1,66.3,336.8,61.8z"/>
		</g>
		<ellipse id="Ellipse_4_1_" fill="#6600FF" cx="91.4" cy="12.8" rx="12.5" ry="12"/>
	</g>
	<g>
		<g>
			<g>
				<path d="M301.1,94.1c1-0.6,1.8-1.2,2.6-2c0.6-0.7,1.2-1.5,1.8-2.5c0.6-1,0.8-2.2,0.8-3.6c0-1.2-0.3-2.4-0.8-3.3
					c-0.6-1-1.3-1.8-2.2-2.4s-2-1.2-3.1-1.5c-1.2-0.3-2.4-0.5-3.6-0.5c-2.5,0-4.8,0.3-6.8,1c-2,0.7-3.7,1.6-5.1,2.7
					c-1.4,1.1-2.4,2.4-3.1,3.9c-0.7,1.5-1.1,3.1-1.1,4.7c0,0.8,0.1,1.6,0.4,2.1c0.3,0.6,0.6,1,0.9,1.4c0.3,0.4,0.7,0.7,0.9,0.9
					c0.3,0.2,0.4,0.5,0.4,0.6c0,0.7-0.4,1-1.2,1c-0.7,0-1.6-0.2-2.6-0.5c-1-0.3-2-0.8-2.9-1.4c-0.9-0.6-1.7-1.3-2.3-2.2
					c-0.6-0.9-1-1.8-1-2.9c0-2.1,0.7-4,2-5.8c1.3-1.8,3.1-3.3,5.3-4.6c2.2-1.3,4.7-2.3,7.5-3.1c2.8-0.8,5.7-1.1,8.6-1.1
					c2.1,0,4.1,0.2,6,0.7c1.9,0.4,3.6,1.1,5.1,2c1.5,0.9,2.7,2,3.6,3.4c0.9,1.3,1.4,2.9,1.4,4.7c0,1.1-0.2,2.1-0.6,3
					c-0.4,0.9-0.9,1.8-1.4,2.5c-0.6,0.8-1.2,1.4-1.8,2c-0.7,0.6-1.3,1.1-1.9,1.5c-0.6,0.4-1.1,0.7-1.5,0.9c-0.4,0.2-0.7,0.3-0.7,0.3
					c0,0,0.4,0.2,1,0.5c0.7,0.3,1.4,0.9,2.1,1.6c0.8,0.7,1.5,1.6,2.1,2.8c0.6,1.1,1,2.5,1,4.2c0,1.8-0.4,3.4-1.2,4.7
					c-0.8,1.3-1.8,2.4-3,3.3c-1.2,0.8-2.6,1.5-4.1,1.9c-1.5,0.4-2.9,0.6-4.4,0.6c-2.5,0-4.9-0.4-7.1-1.3c-2.2-0.9-4.4-1.9-6.4-2.9
					c-1.2,1.4-2.6,2.5-4.1,3.2c-1.5,0.7-3.2,1.1-5.2,1.1c-1.1,0-2.2-0.1-3.3-0.4c-1-0.3-2-0.7-2.8-1.3c-0.8-0.6-1.5-1.2-2-2
					c-0.5-0.8-0.7-1.6-0.7-2.6c0-1,0.2-1.9,0.7-2.8c0.4-0.8,1-1.5,1.7-2c0.7-0.6,1.4-1,2.3-1.3c0.8-0.3,1.6-0.4,2.5-0.4
					c1.4,0,2.8,0.2,4.2,0.7c1.4,0.5,2.7,1.1,4.1,1.8l0.6-1c0.5-0.9,1-2,1.6-3.4c0.6-1.3,1.1-2.8,1.7-4.2c0.6-1.5,1.1-3,1.7-4.5
					c0.6-1.5,1.1-2.9,1.6-4.2c0.5-1.3,1-2.4,1.5-3.3c0.5-0.9,0.9-1.5,1.3-1.7c1.3-0.9,2.6-1.5,3.9-1.8c1.3-0.3,2.2-0.5,2.8-0.5
					c0.4,0,0.7,0.1,0.8,0.2c0.1,0.1,0.2,0.3,0.2,0.6s-0.4,0.8-1.1,1.6c-0.7,0.8-1.4,2-2.1,3.5c-0.2,0.4-0.5,1.3-1,2.8
					c-0.5,1.5-1.1,3.1-1.8,5c-0.7,1.9-1.5,3.9-2.4,6c-0.9,2.1-1.8,3.9-2.7,5.5c-0.2,0.4-0.4,0.8-0.7,1.2c-0.2,0.4-0.4,0.7-0.7,1.1
					c1.5,0.8,3,1.6,4.5,2.2c1.5,0.6,3,0.9,4.5,0.9c1,0,2-0.2,2.9-0.5c0.9-0.3,1.7-0.9,2.5-1.5c0.7-0.7,1.3-1.5,1.7-2.4
					c0.4-0.9,0.6-2,0.6-3.2c0-1.8-0.4-3.2-1.1-4.3c-0.8-1-1.5-1.6-2.3-1.7c-0.3,0.1-0.6,0.2-0.9,0.3c-0.3,0.1-0.6,0.1-0.9,0.2
					c-0.3,0.1-0.6,0.1-0.9,0.1c-0.8,0-1.5-0.2-2.1-0.6c-0.6-0.4-0.9-1-0.9-1.7c0-0.8,0.3-1.4,0.9-1.8c0.6-0.4,1.2-0.6,2-0.6
					c0.4,0,0.8,0,1.2,0.1c0.4,0.1,0.7,0.1,1.1,0.2C300.3,94,300.7,94.1,301.1,94.1z M274.2,107c-0.8,0-1.5,0.3-2.1,0.8
					c-0.6,0.6-0.8,1.2-0.8,1.9c0,0.7,0.3,1.3,1,1.8c0.6,0.5,1.4,0.7,2.3,0.7c1.1,0,2.1-0.3,2.9-0.9c0.8-0.6,1.7-1.4,2.5-2.6
					c-1.1-0.5-2.1-0.9-3-1.3C276,107.1,275.1,107,274.2,107z"/>
				<path d="M321.6,115.6c-1.1,0-2.2-0.2-3.2-0.6c-1-0.4-1.9-0.9-2.7-1.6c-0.8-0.7-1.4-1.6-1.8-2.6c-0.5-1-0.7-2.2-0.7-3.5
					c0-1.8,0.2-3.9,0.6-6.1c0.4-2.2,1-4.5,1.8-6.8c0.8-2.3,1.7-4.5,2.7-6.6c1-2.1,2.1-4,3.3-5.7c1.2-1.7,2.5-3,3.8-4
					c1.3-1,2.6-1.5,3.9-1.5c0.6,0,1.2,0.1,1.8,0.4c0.6,0.3,1,0.7,1.5,1.1c0.4,0.4,0.8,0.9,1,1.5c0.3,0.5,0.4,1,0.4,1.5
					c0,0.8-0.2,1.8-0.6,2.9c-0.4,1.2-1,2.5-1.7,3.9c-0.7,1.4-1.5,2.8-2.5,4.3c-0.9,1.5-1.9,2.9-2.9,4.3c-1,1.4-2,2.7-3.1,3.9
					c-1,1.2-2,2.2-2.9,2.9c-0.1,0.4-0.1,0.9-0.2,1.4c-0.1,0.4-0.1,0.9-0.2,1.4c0,0.5-0.1,1-0.1,1.5c0,1.3,0.3,2.3,0.9,3.1
					c0.6,0.8,1.5,1.2,2.6,1.2c0.7,0,1.5-0.2,2.2-0.7c0.7-0.5,1.4-1,1.9-1.7c0.7-0.7,1.3-1.5,1.8-2.4c0-0.1,0.1-0.2,0.3-0.4
					c0.1-0.1,0.2-0.2,0.3-0.2c0.1-0.1,0.3-0.1,0.5-0.1c0.3,0,0.6,0.1,0.8,0.3c0.2,0.2,0.4,0.5,0.4,0.8c0,0.1,0,0.3-0.1,0.4
					c-0.1,0.1-0.1,0.3-0.2,0.4c-0.1,0.1-0.1,0.3-0.2,0.5c-0.8,1.3-1.7,2.4-2.7,3.4c-0.8,0.8-1.8,1.6-3,2.3
					C324.2,115.2,322.9,115.6,321.6,115.6z M331.2,81.1c0-0.5-0.2-0.8-0.7-0.8c-0.5,0-1.2,0.6-2,1.7c-0.8,1.1-1.7,2.6-2.6,4.5
					c-0.9,1.8-1.8,3.9-2.7,6.2c-0.9,2.3-1.6,4.6-2.1,6.9c0.6-0.5,1.3-1.2,2.1-2.2c0.8-1,1.5-2,2.2-3.2c0.7-1.2,1.5-2.4,2.1-3.7
					c0.7-1.3,1.3-2.5,1.8-3.7c0.5-1.2,1-2.3,1.3-3.3C331.1,82.4,331.2,81.7,331.2,81.1z"/>
				<path d="M355.6,108.8c-0.6,0.9-1.4,1.7-2.4,2.4c-0.8,0.6-1.8,1.2-3,1.7c-1.2,0.5-2.6,0.7-4.2,0.7c-0.7,0-1.4-0.1-2.1-0.2
					c-0.9,0.7-1.9,1.2-2.9,1.6c-1.1,0.4-2.2,0.6-3.4,0.6c-1.1,0-2.2-0.2-3.3-0.6c-1-0.4-2-1-2.8-1.7c-0.8-0.7-1.4-1.5-1.9-2.5
					c-0.5-1-0.7-2-0.7-3c0-2.3,0.4-4.4,1.2-6.1c0.8-1.8,1.8-3.3,3.1-4.5c1.2-1.2,2.6-2.1,4.1-2.8c1.5-0.6,3-0.9,4.4-0.9
					c1.1,0,2.2,0.2,3.2,0.6c1,0.4,1.8,0.9,2.6,1.6c0.7,0.7,1.3,1.6,1.7,2.6c0.4,1,0.6,2.1,0.6,3.4c0,1.5-0.3,3-0.9,4.6
					c-0.6,1.6-1.4,3.1-2.5,4.5c0.1,0,0.3,0.1,0.4,0.1c0.1,0,0.3,0,0.5,0c1,0,1.8-0.2,2.6-0.6c0.8-0.4,1.5-0.8,2-1.3
					c0.7-0.6,1.3-1.2,1.9-1.9c0-0.1,0.1-0.2,0.3-0.4c0.1-0.1,0.2-0.2,0.3-0.2c0.1-0.1,0.3-0.1,0.5-0.1c0.3,0,0.6,0.1,0.8,0.3
					c0.2,0.2,0.4,0.5,0.4,0.8c0,0.1,0,0.3-0.1,0.4c-0.1,0.1-0.1,0.3-0.2,0.4C355.7,108.4,355.7,108.6,355.6,108.8z M335.5,109.2
					c0,1.1,0.2,2,0.7,2.7c0.5,0.7,1.1,1,2,1c0.6,0,1.2-0.2,1.7-0.7c-0.6-0.4-0.9-0.8-0.9-1.3c0-0.3,0.1-0.6,0.3-0.9
					c0.2-0.3,0.4-0.6,0.7-0.9c0.3-0.3,0.6-0.5,0.9-0.6s0.6-0.2,0.8-0.2c0.2,0,0.4,0,0.6,0.1c0.6-1.4,1-2.9,1.3-4.4
					c0.3-1.6,0.4-2.9,0.4-4.2c0-1.2-0.2-2.1-0.6-2.7c-0.4-0.5-0.9-0.8-1.5-0.8c-0.6,0-1.3,0.3-2,1c-0.7,0.6-1.4,1.5-2.1,2.7
					c-0.6,1.2-1.2,2.5-1.6,4.1C335.7,105.6,335.5,107.3,335.5,109.2z"/>
				<path d="M375.7,98.7c0,0.3-0.1,0.8-0.2,1.5c-0.2,0.7-0.4,1.7-0.7,2.8c-0.3,1.1-0.6,2.3-1,3.7c-0.4,1.4-0.8,2.9-1.2,4.4l-0.5,1.8
					c1.7-0.9,3.1-1.8,4.2-2.8c1.1-0.9,2.1-1.9,2.9-3c0.1-0.1,0.2-0.2,0.3-0.4c0.1-0.1,0.2-0.2,0.4-0.2c0.1-0.1,0.3-0.1,0.5-0.1
					c0.3,0,0.6,0.1,0.8,0.3c0.2,0.2,0.3,0.5,0.3,0.8c0,0.1,0,0.2-0.1,0.4c-0.1,0.1-0.1,0.3-0.2,0.4c-0.1,0.1-0.2,0.3-0.3,0.5
					c-0.5,0.6-1,1.2-1.6,1.8c-0.6,0.6-1.2,1.2-2,1.8c-0.8,0.6-1.7,1.2-2.6,1.8c-1,0.6-2.1,1.2-3.4,1.8c-0.4,1.7-1,3.5-1.6,5.2
					c-0.6,1.7-1.4,3.3-2.3,4.7c-0.9,1.4-2,2.6-3.2,3.5c-1.2,0.9-2.8,1.4-4.5,1.4c-0.8,0-1.6-0.1-2.4-0.4c-0.8-0.3-1.4-0.6-2-1.1
					c-0.6-0.5-1-1-1.4-1.7c-0.3-0.6-0.5-1.3-0.5-2.1c0-1,0.3-1.9,0.9-2.8c0.6-0.9,1.4-1.7,2.4-2.5c1-0.8,2.3-1.6,3.7-2.3
					c1.5-0.7,3.1-1.4,4.8-2.1c0.3-1,0.5-1.9,0.7-2.7c0.2-0.9,0.3-1.6,0.4-2.2c-0.7,0.9-1.5,1.7-2.4,2.4c-0.7,0.6-1.6,1.1-2.5,1.6
					s-1.9,0.7-3,0.7c-0.7,0-1.4-0.1-2.1-0.4c-0.7-0.3-1.3-0.7-1.8-1.2c-0.5-0.5-0.9-1.1-1.2-1.8c-0.3-0.7-0.4-1.5-0.4-2.3
					c0-2,0.4-4,1.1-5.9c0.8-1.9,1.7-3.7,2.9-5.3c1.2-1.6,2.6-2.8,4.1-3.8c1.5-1,3-1.4,4.5-1.4c1.1,0,2,0.1,2.8,0.4
					c0.8,0.3,1.4,0.6,1.9,0.9c0.6,0.4,1,0.8,1.3,1.3c0.4,0,0.8,0,1.3,0.1c0.5,0.1,0.9,0.2,1.3,0.4c0.4,0.2,0.7,0.5,1,0.8
					C375.5,97.8,375.7,98.2,375.7,98.7z M358.3,127.8c0.6,0,1.2-0.2,1.8-0.7c0.6-0.5,1.1-1.1,1.6-2c0.5-0.8,1-1.7,1.4-2.8
					c0.4-1,0.8-2.1,1.2-3.2c-1.1,0.6-2,1.2-2.9,2c-0.9,0.7-1.6,1.4-2.2,2.1c-0.6,0.7-1.1,1.4-1.4,2c-0.3,0.6-0.5,1.1-0.5,1.5
					C357.4,127.4,357.7,127.8,358.3,127.8z M366.9,96.7c-0.8,0-1.6,0.4-2.5,1.3c-0.8,0.8-1.6,1.9-2.3,3.1c-0.7,1.2-1.2,2.6-1.7,4
					c-0.4,1.4-0.7,2.7-0.7,3.9c0,1.7,0.5,2.5,1.6,2.5c0.7,0,1.4-0.4,2.3-1.3c0.9-0.9,1.7-2,2.5-3.3c0.8-1.3,1.5-2.6,2-4.1
					c0.5-1.4,0.8-2.7,0.8-3.7c0-0.8-0.2-1.4-0.6-1.8"/>
				<path d="M403.5,108.8c-0.9,1.4-2.1,2.6-3.6,3.6c-1.2,0.9-2.9,1.7-4.8,2.5c-2,0.7-4.4,1.1-7.2,1.1c-1.4,0-2.6-0.3-3.9-0.8
					c-1.2-0.5-2.3-1.2-3.2-2c-0.9-0.8-1.6-1.7-2.1-2.6c-0.5-1-0.8-1.8-0.8-2.6c0-0.8,0.3-1.5,0.8-2c0.6-0.6,1.2-1,1.8-1.4
					c0.8-0.4,1.7-0.7,2.6-1c0.2-0.4,0.5-0.8,0.9-1.4c0.3-0.5,0.7-1.1,1.2-1.8c0.5-0.7,1-1.6,1.7-2.6c1.3-1.9,2.4-3.3,3.3-4.1
					c0.9-0.8,1.7-1.1,2.4-1.1c0.3,0,0.6,0.1,0.9,0.2c0.3,0.2,0.6,0.4,0.9,0.6c0.3,0.2,0.5,0.4,0.7,0.7c0.2,0.2,0.2,0.4,0.2,0.6
					c0,0.2-0.1,0.4-0.2,0.7c-0.1,0.3-0.3,0.6-0.5,0.9c-0.2,0.3-0.3,0.6-0.4,1c-0.1,0.3-0.2,0.7-0.2,1.1c0,1.1,0.1,2.1,0.3,2.9
					c0.2,0.8,0.5,1.6,0.7,2.3c0.3,0.7,0.5,1.4,0.7,2.1c0.2,0.7,0.3,1.4,0.3,2.3c0,0.7-0.1,1.4-0.2,1.8c-0.1,0.5-0.3,0.9-0.5,1.3
					c-0.2,0.4-0.4,0.8-0.6,1c1.1-0.3,2-0.7,2.9-1.2c0.9-0.5,1.6-1.1,2.2-1.6c0.7-0.6,1.2-1.3,1.8-2c0-0.1,0.1-0.2,0.3-0.4
					c0.1-0.1,0.2-0.2,0.3-0.2c0.1-0.1,0.3-0.1,0.5-0.1c0.3,0,0.6,0.1,0.8,0.3c0.2,0.2,0.4,0.5,0.4,0.8c0,0.1,0,0.3-0.1,0.4
					c-0.1,0.1-0.1,0.3-0.2,0.4C403.6,108.4,403.6,108.6,403.5,108.8z M387.9,100.3c-0.8,1.2-1.5,2.2-2,3.2c-0.5,0.8-1,1.6-1.4,2.4
					c-0.4,0.7-0.6,1.2-0.6,1.4c0,0.8,0,1.6,0.1,2.3c0.1,0.8,0.2,1.4,0.5,2c0.2,0.6,0.5,1.1,0.8,1.4c0.3,0.3,0.8,0.5,1.3,0.5
					c0.8,0,1.6-0.5,2.2-1.4c0.6-0.9,0.9-2,0.9-3.3c0-0.7-0.1-1.4-0.3-2.2c-0.2-0.8-0.4-1.5-0.6-2.3c-0.2-0.8-0.4-1.5-0.6-2.2
					S387.9,100.9,387.9,100.3z"/>
			</g>
			<g>
				<path fill="#6600FF" d="M301.1,94.1c1-0.6,1.8-1.2,2.6-2c0.6-0.7,1.2-1.5,1.8-2.5c0.6-1,0.8-2.2,0.8-3.6c0-1.2-0.3-2.4-0.8-3.3
					c-0.6-1-1.3-1.8-2.2-2.4s-2-1.2-3.1-1.5c-1.2-0.3-2.4-0.5-3.6-0.5c-2.5,0-4.8,0.3-6.8,1c-2,0.7-3.7,1.6-5.1,2.7
					c-1.4,1.1-2.4,2.4-3.1,3.9c-0.7,1.5-1.1,3.1-1.1,4.7c0,0.8,0.1,1.6,0.4,2.1c0.3,0.6,0.6,1,0.9,1.4c0.3,0.4,0.7,0.7,0.9,0.9
					c0.3,0.2,0.4,0.5,0.4,0.6c0,0.7-0.4,1-1.2,1c-0.7,0-1.6-0.2-2.6-0.5c-1-0.3-2-0.8-2.9-1.4c-0.9-0.6-1.7-1.3-2.3-2.2
					c-0.6-0.9-1-1.8-1-2.9c0-2.1,0.7-4,2-5.8c1.3-1.8,3.1-3.3,5.3-4.6c2.2-1.3,4.7-2.3,7.5-3.1c2.8-0.8,5.7-1.1,8.6-1.1
					c2.1,0,4.1,0.2,6,0.7c1.9,0.4,3.6,1.1,5.1,2c1.5,0.9,2.7,2,3.6,3.4c0.9,1.3,1.4,2.9,1.4,4.7c0,1.1-0.2,2.1-0.6,3
					c-0.4,0.9-0.9,1.8-1.4,2.5c-0.6,0.8-1.2,1.4-1.8,2c-0.7,0.6-1.3,1.1-1.9,1.5c-0.6,0.4-1.1,0.7-1.5,0.9c-0.4,0.2-0.7,0.3-0.7,0.3
					c0,0,0.4,0.2,1,0.5c0.7,0.3,1.4,0.9,2.1,1.6c0.8,0.7,1.5,1.6,2.1,2.8c0.6,1.1,1,2.5,1,4.2c0,1.8-0.4,3.4-1.2,4.7
					c-0.8,1.3-1.8,2.4-3,3.3c-1.2,0.8-2.6,1.5-4.1,1.9c-1.5,0.4-2.9,0.6-4.4,0.6c-2.5,0-4.9-0.4-7.1-1.3c-2.2-0.9-4.4-1.9-6.4-2.9
					c-1.2,1.4-2.6,2.5-4.1,3.2c-1.5,0.7-3.2,1.1-5.2,1.1c-1.1,0-2.2-0.1-3.3-0.4c-1-0.3-2-0.7-2.8-1.3c-0.8-0.6-1.5-1.2-2-2
					c-0.5-0.8-0.7-1.6-0.7-2.6c0-1,0.2-1.9,0.7-2.8c0.4-0.8,1-1.5,1.7-2c0.7-0.6,1.4-1,2.3-1.3c0.8-0.3,1.6-0.4,2.5-0.4
					c1.4,0,2.8,0.2,4.2,0.7c1.4,0.5,2.7,1.1,4.1,1.8l0.6-1c0.5-0.9,1-2,1.6-3.4c0.6-1.3,1.1-2.8,1.7-4.2c0.6-1.5,1.1-3,1.7-4.5
					c0.6-1.5,1.1-2.9,1.6-4.2c0.5-1.3,1-2.4,1.5-3.3c0.5-0.9,0.9-1.5,1.3-1.7c1.3-0.9,2.6-1.5,3.9-1.8c1.3-0.3,2.2-0.5,2.8-0.5
					c0.4,0,0.7,0.1,0.8,0.2c0.1,0.1,0.2,0.3,0.2,0.6s-0.4,0.8-1.1,1.6c-0.7,0.8-1.4,2-2.1,3.5c-0.2,0.4-0.5,1.3-1,2.8
					c-0.5,1.5-1.1,3.1-1.8,5c-0.7,1.9-1.5,3.9-2.4,6c-0.9,2.1-1.8,3.9-2.7,5.5c-0.2,0.4-0.4,0.8-0.7,1.2c-0.2,0.4-0.4,0.7-0.7,1.1
					c1.5,0.8,3,1.6,4.5,2.2c1.5,0.6,3,0.9,4.5,0.9c1,0,2-0.2,2.9-0.5c0.9-0.3,1.7-0.9,2.5-1.5c0.7-0.7,1.3-1.5,1.7-2.4
					c0.4-0.9,0.6-2,0.6-3.2c0-1.8-0.4-3.2-1.1-4.3c-0.8-1-1.5-1.6-2.3-1.7c-0.3,0.1-0.6,0.2-0.9,0.3c-0.3,0.1-0.6,0.1-0.9,0.2
					c-0.3,0.1-0.6,0.1-0.9,0.1c-0.8,0-1.5-0.2-2.1-0.6c-0.6-0.4-0.9-1-0.9-1.7c0-0.8,0.3-1.4,0.9-1.8c0.6-0.4,1.2-0.6,2-0.6
					c0.4,0,0.8,0,1.2,0.1c0.4,0.1,0.7,0.1,1.1,0.2C300.3,94,300.7,94.1,301.1,94.1z M274.2,107c-0.8,0-1.5,0.3-2.1,0.8
					c-0.6,0.6-0.8,1.2-0.8,1.9c0,0.7,0.3,1.3,1,1.8c0.6,0.5,1.4,0.7,2.3,0.7c1.1,0,2.1-0.3,2.9-0.9c0.8-0.6,1.7-1.4,2.5-2.6
					c-1.1-0.5-2.1-0.9-3-1.3C276,107.1,275.1,107,274.2,107z"/>
				<path fill="#6600FF" d="M321.6,115.6c-1.1,0-2.2-0.2-3.2-0.6c-1-0.4-1.9-0.9-2.7-1.6c-0.8-0.7-1.4-1.6-1.8-2.6
					c-0.5-1-0.7-2.2-0.7-3.5c0-1.8,0.2-3.9,0.6-6.1c0.4-2.2,1-4.5,1.8-6.8c0.8-2.3,1.7-4.5,2.7-6.6c1-2.1,2.1-4,3.3-5.7
					c1.2-1.7,2.5-3,3.8-4c1.3-1,2.6-1.5,3.9-1.5c0.6,0,1.2,0.1,1.8,0.4c0.6,0.3,1,0.7,1.5,1.1c0.4,0.4,0.8,0.9,1,1.5
					c0.3,0.5,0.4,1,0.4,1.5c0,0.8-0.2,1.8-0.6,2.9c-0.4,1.2-1,2.5-1.7,3.9c-0.7,1.4-1.5,2.8-2.5,4.3c-0.9,1.5-1.9,2.9-2.9,4.3
					c-1,1.4-2,2.7-3.1,3.9c-1,1.2-2,2.2-2.9,2.9c-0.1,0.4-0.1,0.9-0.2,1.4c-0.1,0.4-0.1,0.9-0.2,1.4c0,0.5-0.1,1-0.1,1.5
					c0,1.3,0.3,2.3,0.9,3.1c0.6,0.8,1.5,1.2,2.6,1.2c0.7,0,1.5-0.2,2.2-0.7c0.7-0.5,1.4-1,1.9-1.7c0.7-0.7,1.3-1.5,1.8-2.4
					c0-0.1,0.1-0.2,0.3-0.4c0.1-0.1,0.2-0.2,0.3-0.2c0.1-0.1,0.3-0.1,0.5-0.1c0.3,0,0.6,0.1,0.8,0.3c0.2,0.2,0.4,0.5,0.4,0.8
					c0,0.1,0,0.3-0.1,0.4c-0.1,0.1-0.1,0.3-0.2,0.4c-0.1,0.1-0.1,0.3-0.2,0.5c-0.8,1.3-1.7,2.4-2.7,3.4c-0.8,0.8-1.8,1.6-3,2.3
					C324.2,115.2,322.9,115.6,321.6,115.6z M331.2,81.1c0-0.5-0.2-0.8-0.7-0.8c-0.5,0-1.2,0.6-2,1.7c-0.8,1.1-1.7,2.6-2.6,4.5
					c-0.9,1.8-1.8,3.9-2.7,6.2c-0.9,2.3-1.6,4.6-2.1,6.9c0.6-0.5,1.3-1.2,2.1-2.2c0.8-1,1.5-2,2.2-3.2c0.7-1.2,1.5-2.4,2.1-3.7
					c0.7-1.3,1.3-2.5,1.8-3.7c0.5-1.2,1-2.3,1.3-3.3C331.1,82.4,331.2,81.7,331.2,81.1z"/>
				<path fill="#6600FF" d="M355.6,108.8c-0.6,0.9-1.4,1.7-2.4,2.4c-0.8,0.6-1.8,1.2-3,1.7c-1.2,0.5-2.6,0.7-4.2,0.7
					c-0.7,0-1.4-0.1-2.1-0.2c-0.9,0.7-1.9,1.2-2.9,1.6c-1.1,0.4-2.2,0.6-3.4,0.6c-1.1,0-2.2-0.2-3.3-0.6c-1-0.4-2-1-2.8-1.7
					c-0.8-0.7-1.4-1.5-1.9-2.5c-0.5-1-0.7-2-0.7-3c0-2.3,0.4-4.4,1.2-6.1c0.8-1.8,1.8-3.3,3.1-4.5c1.2-1.2,2.6-2.1,4.1-2.8
					c1.5-0.6,3-0.9,4.4-0.9c1.1,0,2.2,0.2,3.2,0.6c1,0.4,1.8,0.9,2.6,1.6c0.7,0.7,1.3,1.6,1.7,2.6c0.4,1,0.6,2.1,0.6,3.4
					c0,1.5-0.3,3-0.9,4.6c-0.6,1.6-1.4,3.1-2.5,4.5c0.1,0,0.3,0.1,0.4,0.1c0.1,0,0.3,0,0.5,0c1,0,1.8-0.2,2.6-0.6
					c0.8-0.4,1.5-0.8,2-1.3c0.7-0.6,1.3-1.2,1.9-1.9c0-0.1,0.1-0.2,0.3-0.4c0.1-0.1,0.2-0.2,0.3-0.2c0.1-0.1,0.3-0.1,0.5-0.1
					c0.3,0,0.6,0.1,0.8,0.3c0.2,0.2,0.4,0.5,0.4,0.8c0,0.1,0,0.3-0.1,0.4c-0.1,0.1-0.1,0.3-0.2,0.4
					C355.7,108.4,355.7,108.6,355.6,108.8z M335.5,109.2c0,1.1,0.2,2,0.7,2.7c0.5,0.7,1.1,1,2,1c0.6,0,1.2-0.2,1.7-0.7
					c-0.6-0.4-0.9-0.8-0.9-1.3c0-0.3,0.1-0.6,0.3-0.9c0.2-0.3,0.4-0.6,0.7-0.9c0.3-0.3,0.6-0.5,0.9-0.6s0.6-0.2,0.8-0.2
					c0.2,0,0.4,0,0.6,0.1c0.6-1.4,1-2.9,1.3-4.4c0.3-1.6,0.4-2.9,0.4-4.2c0-1.2-0.2-2.1-0.6-2.7c-0.4-0.5-0.9-0.8-1.5-0.8
					c-0.6,0-1.3,0.3-2,1c-0.7,0.6-1.4,1.5-2.1,2.7c-0.6,1.2-1.2,2.5-1.6,4.1C335.7,105.6,335.5,107.3,335.5,109.2z"/>
				<path fill="#6600FF" d="M375.7,98.7c0,0.3-0.1,0.8-0.2,1.5c-0.2,0.7-0.4,1.7-0.7,2.8c-0.3,1.1-0.6,2.3-1,3.7
					c-0.4,1.4-0.8,2.9-1.2,4.4l-0.5,1.8c1.7-0.9,3.1-1.8,4.2-2.8c1.1-0.9,2.1-1.9,2.9-3c0.1-0.1,0.2-0.2,0.3-0.4
					c0.1-0.1,0.2-0.2,0.4-0.2c0.1-0.1,0.3-0.1,0.5-0.1c0.3,0,0.6,0.1,0.8,0.3c0.2,0.2,0.3,0.5,0.3,0.8c0,0.1,0,0.2-0.1,0.4
					c-0.1,0.1-0.1,0.3-0.2,0.4c-0.1,0.1-0.2,0.3-0.3,0.5c-0.5,0.6-1,1.2-1.6,1.8c-0.6,0.6-1.2,1.2-2,1.8c-0.8,0.6-1.7,1.2-2.6,1.8
					c-1,0.6-2.1,1.2-3.4,1.8c-0.4,1.7-1,3.5-1.6,5.2c-0.6,1.7-1.4,3.3-2.3,4.7c-0.9,1.4-2,2.6-3.2,3.5c-1.2,0.9-2.8,1.4-4.5,1.4
					c-0.8,0-1.6-0.1-2.4-0.4c-0.8-0.3-1.4-0.6-2-1.1c-0.6-0.5-1-1-1.4-1.7c-0.3-0.6-0.5-1.3-0.5-2.1c0-1,0.3-1.9,0.9-2.8
					c0.6-0.9,1.4-1.7,2.4-2.5c1-0.8,2.3-1.6,3.7-2.3c1.5-0.7,3.1-1.4,4.8-2.1c0.3-1,0.5-1.9,0.7-2.7c0.2-0.9,0.3-1.6,0.4-2.2
					c-0.7,0.9-1.5,1.7-2.4,2.4c-0.7,0.6-1.6,1.1-2.5,1.6s-1.9,0.7-3,0.7c-0.7,0-1.4-0.1-2.1-0.4c-0.7-0.3-1.3-0.7-1.8-1.2
					c-0.5-0.5-0.9-1.1-1.2-1.8c-0.3-0.7-0.4-1.5-0.4-2.3c0-2,0.4-4,1.1-5.9c0.8-1.9,1.7-3.7,2.9-5.3c1.2-1.6,2.6-2.8,4.1-3.8
					c1.5-1,3-1.4,4.5-1.4c1.1,0,2,0.1,2.8,0.4c0.8,0.3,1.4,0.6,1.9,0.9c0.6,0.4,1,0.8,1.3,1.3c0.4,0,0.8,0,1.3,0.1
					c0.5,0.1,0.9,0.2,1.3,0.4c0.4,0.2,0.7,0.5,1,0.8C375.5,97.8,375.7,98.2,375.7,98.7z M358.3,127.8c0.6,0,1.2-0.2,1.8-0.7
					c0.6-0.5,1.1-1.1,1.6-2c0.5-0.8,1-1.7,1.4-2.8c0.4-1,0.8-2.1,1.2-3.2c-1.1,0.6-2,1.2-2.9,2c-0.9,0.7-1.6,1.4-2.2,2.1
					c-0.6,0.7-1.1,1.4-1.4,2c-0.3,0.6-0.5,1.1-0.5,1.5C357.4,127.4,357.7,127.8,358.3,127.8z M366.9,96.7c-0.8,0-1.6,0.4-2.5,1.3
					c-0.8,0.8-1.6,1.9-2.3,3.1c-0.7,1.2-1.2,2.6-1.7,4c-0.4,1.4-0.7,2.7-0.7,3.9c0,1.7,0.5,2.5,1.6,2.5c0.7,0,1.4-0.4,2.3-1.3
					c0.9-0.9,1.7-2,2.5-3.3c0.8-1.3,1.5-2.6,2-4.1c0.5-1.4,0.8-2.7,0.8-3.7c0-0.8-0.2-1.4-0.6-1.8"/>
				<path fill="#6600FF" d="M403.5,108.8c-0.9,1.4-2.1,2.6-3.6,3.6c-1.2,0.9-2.9,1.7-4.8,2.5c-2,0.7-4.4,1.1-7.2,1.1
					c-1.4,0-2.6-0.3-3.9-0.8c-1.2-0.5-2.3-1.2-3.2-2c-0.9-0.8-1.6-1.7-2.1-2.6c-0.5-1-0.8-1.8-0.8-2.6c0-0.8,0.3-1.5,0.8-2
					c0.6-0.6,1.2-1,1.8-1.4c0.8-0.4,1.7-0.7,2.6-1c0.2-0.4,0.5-0.8,0.9-1.4c0.3-0.5,0.7-1.1,1.2-1.8c0.5-0.7,1-1.6,1.7-2.6
					c1.3-1.9,2.4-3.3,3.3-4.1c0.9-0.8,1.7-1.1,2.4-1.1c0.3,0,0.6,0.1,0.9,0.2c0.3,0.2,0.6,0.4,0.9,0.6c0.3,0.2,0.5,0.4,0.7,0.7
					c0.2,0.2,0.2,0.4,0.2,0.6c0,0.2-0.1,0.4-0.2,0.7c-0.1,0.3-0.3,0.6-0.5,0.9c-0.2,0.3-0.3,0.6-0.4,1c-0.1,0.3-0.2,0.7-0.2,1.1
					c0,1.1,0.1,2.1,0.3,2.9c0.2,0.8,0.5,1.6,0.7,2.3c0.3,0.7,0.5,1.4,0.7,2.1c0.2,0.7,0.3,1.4,0.3,2.3c0,0.7-0.1,1.4-0.2,1.8
					c-0.1,0.5-0.3,0.9-0.5,1.3c-0.2,0.4-0.4,0.8-0.6,1c1.1-0.3,2-0.7,2.9-1.2c0.9-0.5,1.6-1.1,2.2-1.6c0.7-0.6,1.2-1.3,1.8-2
					c0-0.1,0.1-0.2,0.3-0.4c0.1-0.1,0.2-0.2,0.3-0.2c0.1-0.1,0.3-0.1,0.5-0.1c0.3,0,0.6,0.1,0.8,0.3c0.2,0.2,0.4,0.5,0.4,0.8
					c0,0.1,0,0.3-0.1,0.4c-0.1,0.1-0.1,0.3-0.2,0.4C403.6,108.4,403.6,108.6,403.5,108.8z M387.9,100.3c-0.8,1.2-1.5,2.2-2,3.2
					c-0.5,0.8-1,1.6-1.4,2.4c-0.4,0.7-0.6,1.2-0.6,1.4c0,0.8,0,1.6,0.1,2.3c0.1,0.8,0.2,1.4,0.5,2c0.2,0.6,0.5,1.1,0.8,1.4
					c0.3,0.3,0.8,0.5,1.3,0.5c0.8,0,1.6-0.5,2.2-1.4c0.6-0.9,0.9-2,0.9-3.3c0-0.7-0.1-1.4-0.3-2.2c-0.2-0.8-0.4-1.5-0.6-2.3
					c-0.2-0.8-0.4-1.5-0.6-2.2S387.9,100.9,387.9,100.3z"/>
			</g>
		</g>
	</g>
</g>
</svg>
